<svg xmlns="http://www.w3.org/2000/svg" xmlns:xlink="http://www.w3.org/1999/xlink" width="109.389" height="93.716" viewBox="0 0 109.389 93.716">
  <defs>
    <clipPath id="clip-path">
      <rect id="Rectángulo_222" data-name="Rectángulo 222" width="109.389" height="93.716" transform="translate(0 0)" fill="#f5f7f2"/>
    </clipPath>
  </defs>
  <g id="Grupo_3387" data-name="Grupo 3387" transform="translate(0 0)" opacity="0.9">
    <g id="Grupo_3386" data-name="Grupo 3386" clip-path="url(#clip-path)">
      <path id="Trazado_860" data-name="Trazado 860" d="M58.55,40.016a18.759,18.759,0,0,0-6.1-8.2,19.664,19.664,0,0,0-10.349-3.8,3.482,3.482,0,0,1-1.1-.2,2.183,2.183,0,0,1-.75-.45,1.011,1.011,0,0,1-.25-.75q0-1.6,2.85-2.9a16.7,16.7,0,0,1,6.95-1.3,20.7,20.7,0,0,1,11.7,3.45,23.4,23.4,0,0,1,8.15,9.55,31.323,31.323,0,0,1,2.95,13.8A43.782,43.782,0,0,1,67,70.266a47.02,47.02,0,0,1-15.35,16.9A37.662,37.662,0,0,1,30.2,93.716a33.5,33.5,0,0,1-15-3.4A26.37,26.37,0,0,1,4.15,80.066Q0,73.217,0,63.216a45.642,45.642,0,0,1,7.25-24.8,55.443,55.443,0,0,1,18.6-18.3q11.348-6.8,22.95-6.8a28.071,28.071,0,0,1,10.7,1.85q4.5,1.851,4.5,4.55a1.613,1.613,0,0,1-.3,1,.947.947,0,0,1-.8.4,13.313,13.313,0,0,1-1.9-.4,27.813,27.813,0,0,0-9.2-1.4,29.9,29.9,0,0,0-18.2,6.15,42.831,42.831,0,0,0-13.1,16.05,46.671,46.671,0,0,0-4.8,20.6,31.731,31.731,0,0,0,2.451,13,19.7,19.7,0,0,0,6.6,8.4,15.781,15.781,0,0,0,9.25,2.9,21.474,21.474,0,0,0,13.3-4.65,31.606,31.606,0,0,0,9.649-12.7A43.5,43.5,0,0,0,60.5,51.316a30.9,30.9,0,0,0-1.95-11.3" fill="#f5f7f2"/>
      <path id="Trazado_861" data-name="Trazado 861" d="M77.388,25.1q6.2-5.1,15.8-11.5,2-1.3,3.651-2.45a18.867,18.867,0,0,0,2.15-1.65l1.4,2.4-1.5.9a23.579,23.579,0,0,1-7.3-1.4,18.562,18.562,0,0,0-2.2-.65,9.135,9.135,0,0,0-2-.25,5.541,5.541,0,0,0-3.1.85,3.91,3.91,0,0,0-1.7,2.25l-.2.5a3.684,3.684,0,0,1-.45,1.25,1.235,1.235,0,0,1-1.05.35,6.855,6.855,0,0,1-4.9-2.15,7.539,7.539,0,0,1-2.2-5.65,7.437,7.437,0,0,1,2.451-5.55A9.063,9.063,0,0,1,82.788,0a14.319,14.319,0,0,1,4.8.85q2.4.851,6.3,2.65a62.321,62.321,0,0,0,6.4,2.75,16.166,16.166,0,0,0,5.4.95l.5,4.9a58.054,58.054,0,0,0-6.75,3.3q-3.953,2.2-8.349,5.2a88.276,88.276,0,0,0-8.3,6.4,11.268,11.268,0,0,1,2.15.25q1.25.25,2.551.55,1.7.3,3.649.65a19.745,19.745,0,0,0,3.451.35,11.207,11.207,0,0,0,4.7-1.05,7.721,7.721,0,0,0,3.4-2.75l.2-.3a1.887,1.887,0,0,1,1.4-.9q.9,0,1.451,1.75a12.5,12.5,0,0,1,.549,3.75,10.081,10.081,0,0,1-2.949,7.25q-2.95,3.05-8.651,3.05a22.871,22.871,0,0,1-4.55-.5q-2.45-.5-5.85-1.4a29.064,29.064,0,0,0-6.1-1.3,6.457,6.457,0,0,0-2.5.6,3.147,3.147,0,0,1-1.7.5,2.47,2.47,0,0,1-2.051-.95,4.176,4.176,0,0,1-.75-2.65q0-3.7,6.2-8.8m21.6-16.15a20.872,20.872,0,0,1,3.85-2.4,8.388,8.388,0,0,1,3.15-1.05,3.8,3.8,0,0,1,2.5.75,2.641,2.641,0,0,1,.9,2.15,4.4,4.4,0,0,1-2.35,3.65,8.7,8.7,0,0,1-4.85,1.55,4.117,4.117,0,0,1-2.1-.35,1.84,1.84,0,0,1-.7-1.05.207.207,0,0,0-.049-.15.193.193,0,0,1-.051-.15l-2-.7q0-.9,1.7-2.25" fill="#f5f7f2"/>
    </g>
  </g>
</svg>
