<svg xmlns="http://www.w3.org/2000/svg" xmlns:xlink="http://www.w3.org/1999/xlink" width="184" height="80.4" viewBox="0 0 184 80.4">
  <defs>
    <clipPath id="clip-path">
      <rect id="Rectángulo_221" data-name="Rectángulo 221" width="184" height="80.4" transform="translate(0 0)" fill="#f5f7f2"/>
    </clipPath>
  </defs>
  <g id="Grupo_3404" data-name="Grupo 3404" transform="translate(5 25)">
    <g id="Grupo_3384" data-name="Grupo 3384" transform="translate(-5 -25)" clip-path="url(#clip-path)">
      <path id="Trazado_853" data-name="Trazado 853" d="M58.55,26.7a18.757,18.757,0,0,0-6.1-8.2A19.671,19.671,0,0,0,42.1,14.7a3.477,3.477,0,0,1-1.1-.2,2.183,2.183,0,0,1-.75-.45A1.015,1.015,0,0,1,40,13.3q0-1.6,2.85-2.9A16.7,16.7,0,0,1,49.8,9.1a20.7,20.7,0,0,1,11.7,3.45,23.4,23.4,0,0,1,8.15,9.55A31.323,31.323,0,0,1,72.6,35.9,43.782,43.782,0,0,1,67,56.95a47.029,47.029,0,0,1-15.35,16.9A37.661,37.661,0,0,1,30.2,80.4a33.492,33.492,0,0,1-15-3.4A26.367,26.367,0,0,1,4.15,66.75Q0,59.9,0,49.9A45.642,45.642,0,0,1,7.25,25.1,55.453,55.453,0,0,1,25.85,6.8Q37.2,0,48.8,0A28.072,28.072,0,0,1,59.5,1.85Q64,3.7,64,6.4a1.618,1.618,0,0,1-.3,1,.95.95,0,0,1-.8.4A13.342,13.342,0,0,1,61,7.4,27.812,27.812,0,0,0,51.8,6a29.9,29.9,0,0,0-18.2,6.15A42.841,42.841,0,0,0,20.5,28.2a46.669,46.669,0,0,0-4.8,20.6,31.715,31.715,0,0,0,2.45,13,19.7,19.7,0,0,0,6.6,8.4A15.778,15.778,0,0,0,34,73.1a21.474,21.474,0,0,0,13.3-4.65,31.608,31.608,0,0,0,9.65-12.7A43.517,43.517,0,0,0,60.5,38a30.9,30.9,0,0,0-1.95-11.3" fill="#f5f7f2"/>
      <path id="Trazado_854" data-name="Trazado 854" d="M88.8,44.1q-.4,1-.55,1.45T87.7,46.9a67.621,67.621,0,0,0-2.8,8.45A40.9,40.9,0,0,0,83.8,65.5L83,62.3q2.9-7.4,6.15-13.85A51.383,51.383,0,0,1,96.7,37.2q4.3-4.8,8.9-4.8a6.92,6.92,0,0,1,4.6,1.8,6.6,6.6,0,0,1,2.1,5.3,9.681,9.681,0,0,1-3.05,7.05,10.134,10.134,0,0,1-7.45,3.05,4.809,4.809,0,0,1-2-.3.961.961,0,0,1-.6-.9,1.332,1.332,0,0,1,.3-.8,6.53,6.53,0,0,0,.5-2.3,1.263,1.263,0,0,0-.3-.85.9.9,0,0,0-.7-.35q-1.2,0-3.1,2.4a41.681,41.681,0,0,0-4,6.4,72.716,72.716,0,0,0-3.8,8.6Q87.6,63,87,64.6a27.748,27.748,0,0,1-2.25,5.3A3.062,3.062,0,0,1,82,71.4a6.3,6.3,0,0,1-4.1-1.3,9.2,9.2,0,0,1-2.6-3.7,10.34,10.34,0,0,1-.6-2.95q-.2-2.049-.2-4.05a30.259,30.259,0,0,1,.4-4.35q.4-2.649,1-5.45,1.4-7,3.3-10.2t4.7-3.2a5.048,5.048,0,0,1,3.8,1.7,5.533,5.533,0,0,1,1.6,3.9,7.972,7.972,0,0,1-.5,2.3" fill="#f5f7f2"/>
      <path id="Trazado_855" data-name="Trazado 855" d="M126.1,44.55a6.593,6.593,0,0,1-2-4.75,8.69,8.69,0,0,1,2.8-6.75,9.879,9.879,0,0,1,12.45-.65,13.184,13.184,0,0,1,4.25,5.45,19.937,19.937,0,0,1,1.6,8.25,27.818,27.818,0,0,1-2.75,11.95,25.589,25.589,0,0,1-7.65,9.6,17.791,17.791,0,0,1-11.1,3.75q-6.3,0-9.85-3.9a14,14,0,0,1-3.55-9.8,20.533,20.533,0,0,1,2.95-10.6A27.488,27.488,0,0,1,120.3,39q4.1-3.1,6.8-3.1c1.065,0,1.6.4,1.6,1.2a9.93,9.93,0,0,1-.8,3.1,7.632,7.632,0,0,0-3.35,2.8,18.865,18.865,0,0,0-2.7,5.3,19.519,19.519,0,0,0-1.05,6.3,12,12,0,0,0,1.8,6.8,5.688,5.688,0,0,0,5,2.7,7.334,7.334,0,0,0,5.25-2.3,15.407,15.407,0,0,0,3.65-5.95,22.643,22.643,0,0,0,1.3-7.65,12.654,12.654,0,0,0-1.1-5.8q-1.1-2.1-2.6-2.1a1.746,1.746,0,0,0-1.55.85A4.087,4.087,0,0,0,132,43.4a4.04,4.04,0,0,0,.2,1.3,1.906,1.906,0,0,1,.1.6,1.063,1.063,0,0,1-.6.95,2.713,2.713,0,0,1-1.4.35,5.867,5.867,0,0,1-4.2-2.05" fill="#f5f7f2"/>
      <path id="Trazado_856" data-name="Trazado 856" d="M152,57.5q6.2-5.1,15.8-11.5,2-1.3,3.65-2.45a18.677,18.677,0,0,0,2.15-1.65l1.4,2.4-1.5.9a23.59,23.59,0,0,1-7.3-1.4,18.547,18.547,0,0,0-2.2-.65,9.142,9.142,0,0,0-2-.25,5.541,5.541,0,0,0-3.1.85A3.916,3.916,0,0,0,157.2,46l-.2.5a3.705,3.705,0,0,1-.45,1.25,1.235,1.235,0,0,1-1.05.35,6.855,6.855,0,0,1-4.9-2.15,7.542,7.542,0,0,1-2.2-5.65,7.44,7.44,0,0,1,2.45-5.55,9.065,9.065,0,0,1,6.55-2.35,14.313,14.313,0,0,1,4.8.85q2.4.851,6.3,2.65a62.231,62.231,0,0,0,6.4,2.75,16.162,16.162,0,0,0,5.4.95l.5,4.9a58.054,58.054,0,0,0-6.75,3.3Q170.1,50,165.7,53a88.393,88.393,0,0,0-8.3,6.4,11.268,11.268,0,0,1,2.15.25q1.249.25,2.55.55,1.7.3,3.65.65a19.734,19.734,0,0,0,3.45.35,11.212,11.212,0,0,0,4.7-1.05,7.726,7.726,0,0,0,3.4-2.75l.2-.3a1.887,1.887,0,0,1,1.4-.9q.9,0,1.45,1.75a12.465,12.465,0,0,1,.55,3.75,10.078,10.078,0,0,1-2.95,7.25Q175,72,169.3,72a22.871,22.871,0,0,1-4.55-.5q-2.451-.5-5.85-1.4a29.064,29.064,0,0,0-6.1-1.3,6.449,6.449,0,0,0-2.5.6,3.15,3.15,0,0,1-1.7.5,2.468,2.468,0,0,1-2.05-.95,4.176,4.176,0,0,1-.75-2.65q0-3.7,6.2-8.8m21.6-16.15a20.906,20.906,0,0,1,3.85-2.4,8.4,8.4,0,0,1,3.15-1.05,3.8,3.8,0,0,1,2.5.75,2.641,2.641,0,0,1,.9,2.15,4.4,4.4,0,0,1-2.35,3.65A8.7,8.7,0,0,1,176.8,46a4.122,4.122,0,0,1-2.1-.35,1.839,1.839,0,0,1-.7-1.05.207.207,0,0,0-.05-.15.2.2,0,0,1-.05-.15l-2-.7q0-.9,1.7-2.25" fill="#f5f7f2"/>
    </g>
  </g>
</svg>
